
<global>
ampeg_attack=0.002
ampeg_release=1.5
</global>

<group>
group_label=RR1
seq_length=8
seq_position=1

<region>
end=24000
hivel=127
key=A#2
lovel=1
offset=1005
sample=OM28_staccatissimo_MF_A#2_RR1.opus
</region>

<region>
end=24000
hivel=127
key=A#3
lovel=1
offset=2907
sample=OM28_staccatissimo_MF_A#3_RR1.opus
</region>

<region>
end=24000
hivel=127
key=A#4
lovel=1
offset=5550
sample=OM28_staccatissimo_MF_A#4_RR1.opus
</region>

<region>
end=24000
hivel=127
key=A2
lovel=1
offset=974
sample=OM28_staccatissimo_MF_A2_RR1.opus
</region>

<region>
end=24000
hivel=127
key=A3
lovel=1
offset=2090
sample=OM28_staccatissimo_MF_A3_RR1.opus
</region>

<region>
end=24000
hivel=127
key=A4
lovel=1
offset=1635
sample=OM28_staccatissimo_MF_A4_RR1.opus
</region>

<region>
end=24000
hivel=127
key=B2
lovel=1
offset=884
sample=OM28_staccatissimo_MF_B2_RR1.opus
</region>

<region>
end=24000
hivel=127
key=B3
lovel=1
offset=868
sample=OM28_staccatissimo_MF_B3_RR1.opus
</region>

<region>
end=24000
hivel=127
key=B4
lovel=1
offset=3178
sample=OM28_staccatissimo_MF_B4_RR1.opus
</region>

<region>
end=24000
hivel=127
key=C#3
lovel=1
offset=2595
sample=OM28_staccatissimo_MF_C#3_RR1.opus
</region>

<region>
end=24000
hivel=127
key=C#4
lovel=1
offset=2243
sample=OM28_staccatissimo_MF_C#4_RR1.opus
</region>

<region>
end=24000
hivel=127
key=C#5
lovel=1
offset=2246
sample=OM28_staccatissimo_MF_C#5_RR1.opus
</region>

<region>
end=24000
hivel=127
key=C3
lovel=1
offset=2450
sample=OM28_staccatissimo_MF_C3_RR1.opus
</region>

<region>
end=24000
hikey=C4
hivel=127
lokey=C4
lovel=1
offset=955
sample=OM28_staccatissimo_MF_C4_RR1.opus
</region>

<region>
end=24000
hivel=127
key=C5
lovel=1
offset=3261
sample=OM28_staccatissimo_MF_C5_RR1.opus
</region>

<region>
end=24000
hivel=127
key=D#3
lovel=1
offset=982
sample=OM28_staccatissimo_MF_D#3_RR1.opus
</region>

<region>
end=24000
hivel=127
key=D#4
lovel=1
offset=3110
sample=OM28_staccatissimo_MF_D#4_RR1.opus
</region>

<region>
end=24000
hivel=127
key=D#5
lovel=1
offset=9167
sample=OM28_staccatissimo_MF_D#5_RR1.opus
</region>

<region>
end=24000
hivel=127
key=D3
lovel=1
offset=5914
sample=OM28_staccatissimo_MF_D3_RR1.opus
</region>

<region>
end=24000
hivel=127
key=D4
lovel=1
offset=1196
sample=OM28_staccatissimo_MF_D4_RR1.opus
</region>

<region>
end=24000
hivel=127
key=D5
lovel=1
offset=730
sample=OM28_staccatissimo_MF_D5_RR1.opus
</region>

<region>
end=24000
hikey=E2
hivel=127
lokey=C2
lovel=1
offset=1243
pitch_keycenter=E2
sample=OM28_staccatissimo_MF_E2_RR1.opus
</region>

<region>
end=24000
hivel=127
key=E3
lovel=1
offset=1065
sample=OM28_staccatissimo_MF_E3_RR1.opus
</region>

<region>
end=24000
hivel=127
key=E4
lovel=1
offset=5507
sample=OM28_staccatissimo_MF_E4_RR1.opus
</region>

<region>
end=24000
hivel=127
key=E5
lovel=1
offset=7471
sample=OM28_staccatissimo_MF_E5_RR1.opus
</region>

<region>
end=24000
hivel=127
key=F#2
lovel=1
offset=987
sample=OM28_staccatissimo_MF_F#2_RR1.opus
</region>

<region>
end=24000
hivel=127
key=F#3
lovel=1
offset=1021
sample=OM28_staccatissimo_MF_F#3_RR1.opus
</region>

<region>
end=24000
hivel=127
key=F#4
lovel=1
offset=808
sample=OM28_staccatissimo_MF_F#4_RR1.opus
</region>

<region>
end=24000
hivel=127
key=F#5
lovel=1
offset=7971
sample=OM28_staccatissimo_MF_F#5_RR1.opus
</region>

<region>
end=24000
hivel=127
key=F2
lovel=1
offset=1137
sample=OM28_staccatissimo_MF_F2_RR1.opus
</region>

<region>
end=24000
hivel=127
key=F3
lovel=1
offset=1002
sample=OM28_staccatissimo_MF_F3_RR1.opus
</region>

<region>
end=24000
hivel=127
key=F4
lovel=1
offset=1500
sample=OM28_staccatissimo_MF_F4_RR1.opus
</region>

<region>
end=24000
hivel=127
key=F5
lovel=1
offset=4403
sample=OM28_staccatissimo_MF_F5_RR1.opus
</region>

<region>
end=24000
hivel=127
key=G#2
lovel=1
offset=980
sample=OM28_staccatissimo_MF_G#2_RR1.opus
</region>

<region>
end=24000
hivel=127
key=G#3
lovel=1
offset=985
sample=OM28_staccatissimo_MF_G#3_RR1.opus
</region>

<region>
end=24000
hivel=127
key=G#4
lovel=1
offset=3760
sample=OM28_staccatissimo_MF_G#4_RR1.opus
</region>

<region>
end=24000
hivel=127
key=G2
lovel=1
offset=1012
sample=OM28_staccatissimo_MF_G2_RR1.opus
</region>

<region>
end=24000
hivel=127
key=G3
lovel=1
offset=1029
sample=OM28_staccatissimo_MF_G3_RR1.opus
</region>

<region>
end=24000
hivel=127
key=G4
lovel=1
offset=8186
sample=OM28_staccatissimo_MF_G4_RR1.opus
</region>

<region>
end=24000
hikey=C6
hivel=127
lokey=G5
lovel=1
offset=1542
pitch_keycenter=G5
sample=OM28_staccatissimo_MF_G5_RR1.opus
</region>
</group>

<group>
group_label=RR2
seq_length=8
seq_position=2

<region>
end=18125
hivel=127
key=A#3
lovel=1
offset=1398
sample=OM28_staccatissimo_MF_A#3_RR2.opus
</region>

<region>
end=24000
hivel=127
key=A#4
lovel=1
offset=9006
sample=OM28_staccatissimo_MF_A#4_RR2.opus
</region>

<region>
end=30908
hivel=127
key=A2
lovel=1
offset=9728
sample=OM28_staccatissimo_MF_A2_RR2.opus
</region>

<region>
end=24000
hivel=127
key=A3
lovel=1
offset=9027
sample=OM28_staccatissimo_MF_A3_RR2.opus
</region>

<region>
end=24000
hivel=127
key=A4
lovel=1
offset=7468
sample=OM28_staccatissimo_MF_A4_RR2.opus
</region>

<region>
end=24000
hivel=127
key=B2
lovel=1
offset=9270
sample=OM28_staccatissimo_MF_B2_RR2.opus
</region>

<region>
end=29998
hivel=127
key=B3
lovel=1
offset=9870
sample=OM28_staccatissimo_MF_B3_RR2.opus
</region>

<region>
end=24000
hivel=127
key=B4
lovel=1
offset=1716
sample=OM28_staccatissimo_MF_B4_RR2.opus
</region>

<region>
end=24000
hivel=127
key=C#3
lovel=1
offset=9631
sample=OM28_staccatissimo_MF_C#3_RR2.opus
</region>

<region>
end=29917
hivel=127
key=C#4
lovel=1
offset=9846
sample=OM28_staccatissimo_MF_C#4_RR2.opus
</region>

<region>
end=24000
hivel=127
key=C#5
lovel=1
offset=9023
sample=OM28_staccatissimo_MF_C#5_RR2.opus
</region>

<region>
end=24000
hivel=127
key=C3
lovel=1
offset=9392
sample=OM28_staccatissimo_MF_C3_RR2.opus
</region>

<region>
end=29917
hikey=C4
hivel=127
lokey=C4
lovel=1
offset=11231
sample=OM28_staccatissimo_MF_C4_RR2.opus
</region>

<region>
end=24000
hivel=127
key=C5
lovel=1
offset=9139
sample=OM28_staccatissimo_MF_C5_RR2.opus
</region>

<region>
end=29537
hivel=127
key=D#3
lovel=1
offset=7705
sample=OM28_staccatissimo_MF_D#3_RR2.opus
</region>

<region>
end=29917
hivel=127
key=D#4
lovel=1
offset=8883
sample=OM28_staccatissimo_MF_D#4_RR2.opus
</region>

<region>
end=24000
hivel=127
key=D#5
lovel=1
offset=8923
sample=OM28_staccatissimo_MF_D#5_RR2.opus
</region>

<region>
end=24000
hivel=127
key=D3
lovel=1
offset=10545
sample=OM28_staccatissimo_MF_D3_RR2.opus
</region>

<region>
end=29917
hivel=127
key=D4
lovel=1
offset=9527
sample=OM28_staccatissimo_MF_D4_RR2.opus
</region>

<region>
end=24000
hivel=127
key=D5
lovel=1
offset=9747
sample=OM28_staccatissimo_MF_D5_RR2.opus
</region>

<region>
end=24000
hikey=E2
hivel=127
lokey=C2
lovel=1
offset=9178
pitch_keycenter=E2
sample=OM28_staccatissimo_MF_E2_RR2.opus
</region>

<region>
end=24000
hivel=127
key=E3
lovel=1
offset=8136
sample=OM28_staccatissimo_MF_E3_RR2.opus
</region>

<region>
end=29917
hivel=127
key=E4
lovel=1
offset=8394
sample=OM28_staccatissimo_MF_E4_RR2.opus
</region>

<region>
end=24000
hivel=127
key=E5
lovel=1
offset=9210
sample=OM28_staccatissimo_MF_E5_RR2.opus
</region>

<region>
end=24000
hivel=127
key=F#2
lovel=1
offset=1223
sample=OM28_staccatissimo_MF_F#2_RR2.opus
</region>

<region>
end=25903
hivel=127
key=F#3
lovel=1
offset=8420
sample=OM28_staccatissimo_MF_F#3_RR2.opus
</region>

<region>
end=24000
hivel=127
key=F#4
lovel=1
offset=9101
sample=OM28_staccatissimo_MF_F#4_RR2.opus
</region>

<region>
end=24000
hivel=127
key=F#5
lovel=1
offset=9676
sample=OM28_staccatissimo_MF_F#5_RR2.opus
</region>

<region>
end=28814
hivel=127
key=F2
lovel=1
offset=10009
sample=OM28_staccatissimo_MF_F2_RR2.opus
</region>

<region>
end=24000
hivel=127
key=F3
lovel=1
offset=1026
sample=OM28_staccatissimo_MF_F3_RR2.opus
</region>

<region>
end=29917
hivel=127
key=F4
lovel=1
offset=9205
sample=OM28_staccatissimo_MF_F4_RR2.opus
</region>

<region>
end=24000
hivel=127
key=F5
lovel=1
offset=9938
sample=OM28_staccatissimo_MF_F5_RR2.opus
</region>

<region>
end=29073
hivel=127
key=G#2
lovel=1
offset=10656
sample=OM28_staccatissimo_MF_G#2_RR2.opus
</region>

<region>
end=24000
hivel=127
key=G#3
lovel=1
offset=963
sample=OM28_staccatissimo_MF_G#3_RR2.opus
</region>

<region>
end=24000
hivel=127
key=G#4
lovel=1
offset=8433
sample=OM28_staccatissimo_MF_G#4_RR2.opus
</region>

<region>
end=29445
hivel=127
key=G2
lovel=1
offset=10173
sample=OM28_staccatissimo_MF_G2_RR2.opus
</region>

<region>
end=24000
hivel=127
key=G3
lovel=1
offset=1378
sample=OM28_staccatissimo_MF_G3_RR2.opus
</region>

<region>
end=24000
hivel=127
key=G4
lovel=1
offset=9412
sample=OM28_staccatissimo_MF_G4_RR2.opus
</region>

<region>
end=24000
hikey=C6
hivel=127
lokey=G5
lovel=1
offset=8969
pitch_keycenter=G5
sample=OM28_staccatissimo_MF_G5_RR2.opus
</region>

<region>
end=24000
hivel=127
key=A#2
lovel=1
offset=8883
sample=OM28_staccatissimo_MF_A#2_RR6.opus
</region>
</group>

<group>
group_label=RR3
seq_length=8
seq_position=3

<region>
end=20910
hivel=127
key=A#2
lovel=1
offset=994
sample=OM28_staccatissimo_MF_A#2_RR3.opus
</region>

<region>
end=24000
hivel=127
key=A#3
lovel=1
offset=7695
sample=OM28_staccatissimo_MF_A#3_RR3.opus
</region>

<region>
end=26841
hivel=127
key=A#4
lovel=1
offset=8184
sample=OM28_staccatissimo_MF_A#4_RR3.opus
</region>

<region>
end=27316
hivel=127
key=A2
lovel=1
offset=9071
sample=OM28_staccatissimo_MF_A2_RR3.opus
</region>

<region>
end=24000
hivel=127
key=A3
lovel=1
offset=8478
sample=OM28_staccatissimo_MF_A3_RR3.opus
</region>

<region>
end=24000
hivel=127
key=A4
lovel=1
offset=1335
sample=OM28_staccatissimo_MF_A4_RR3.opus
</region>

<region>
end=24000
hivel=127
key=B2
lovel=1
offset=9348
sample=OM28_staccatissimo_MF_B2_RR3.opus
</region>

<region>
end=29196
hivel=127
key=B3
lovel=1
offset=8447
sample=OM28_staccatissimo_MF_B3_RR3.opus
</region>

<region>
end=24000
hivel=127
key=B4
lovel=1
offset=8512
sample=OM28_staccatissimo_MF_B4_RR3.opus
</region>

<region>
end=26541
hivel=127
key=C#3
lovel=1
offset=9312
sample=OM28_staccatissimo_MF_C#3_RR3.opus
</region>

<region>
end=29196
hivel=127
key=C#4
lovel=1
offset=10234
sample=OM28_staccatissimo_MF_C#4_RR3.opus
</region>

<region>
end=24000
hivel=127
key=C#5
lovel=1
offset=1607
sample=OM28_staccatissimo_MF_C#5_RR3.opus
</region>

<region>
end=24000
hivel=127
key=C3
lovel=1
offset=8452
sample=OM28_staccatissimo_MF_C3_RR3.opus
</region>

<region>
end=24000
hikey=C4
hivel=127
lokey=C4
lovel=1
offset=9671
sample=OM28_staccatissimo_MF_C4_RR3.opus
</region>

<region>
end=24000
hivel=127
key=C5
lovel=1
offset=9244
sample=OM28_staccatissimo_MF_C5_RR3.opus
</region>

<region>
end=30530
hivel=127
key=D#3
lovel=1
offset=9996
sample=OM28_staccatissimo_MF_D#3_RR3.opus
</region>

<region>
end=29196
hivel=127
key=D#4
lovel=1
offset=8848
sample=OM28_staccatissimo_MF_D#4_RR3.opus
</region>

<region>
end=24000
hivel=127
key=D#5
lovel=1
offset=7795
sample=OM28_staccatissimo_MF_D#5_RR3.opus
</region>

<region>
end=24000
hivel=127
key=D3
lovel=1
offset=9619
sample=OM28_staccatissimo_MF_D3_RR3.opus
</region>

<region>
end=29196
hivel=127
key=D4
lovel=1
offset=9548
sample=OM28_staccatissimo_MF_D4_RR3.opus
</region>

<region>
end=26881
hivel=127
key=D5
lovel=1
offset=7821
sample=OM28_staccatissimo_MF_D5_RR3.opus
</region>

<region>
end=24000
hikey=E2
hivel=127
lokey=C2
lovel=1
offset=8957
pitch_keycenter=E2
sample=OM28_staccatissimo_MF_E2_RR3.opus
</region>

<region>
end=29101
hivel=127
key=E3
lovel=1
offset=7842
sample=OM28_staccatissimo_MF_E3_RR3.opus
</region>

<region>
end=27910
hivel=127
key=E4
lovel=1
offset=8696
sample=OM28_staccatissimo_MF_E4_RR3.opus
</region>

<region>
end=24000
hivel=127
key=E5
lovel=1
offset=9429
sample=OM28_staccatissimo_MF_E5_RR3.opus
</region>

<region>
end=24000
hivel=127
key=F#2
lovel=1
offset=9610
sample=OM28_staccatissimo_MF_F#2_RR3.opus
</region>

<region>
end=24000
hivel=127
key=F#3
lovel=1
offset=8511
sample=OM28_staccatissimo_MF_F#3_RR3.opus
</region>

<region>
end=27910
hivel=127
key=F#4
lovel=1
offset=10053
sample=OM28_staccatissimo_MF_F#4_RR3.opus
</region>

<region>
end=24000
hivel=127
key=F#5
lovel=1
offset=2908
sample=OM28_staccatissimo_MF_F#5_RR3.opus
</region>

<region>
end=28100
hivel=127
key=F2
lovel=1
offset=9599
sample=OM28_staccatissimo_MF_F2_RR3.opus
</region>

<region>
end=29101
hivel=127
key=F3
lovel=1
offset=10681
sample=OM28_staccatissimo_MF_F3_RR3.opus
</region>

<region>
end=27910
hivel=127
key=F4
lovel=1
offset=9475
sample=OM28_staccatissimo_MF_F4_RR3.opus
</region>

<region>
end=24000
hivel=127
key=F5
lovel=1
offset=10642
sample=OM28_staccatissimo_MF_F5_RR3.opus
</region>

<region>
end=27316
hivel=127
key=G#2
lovel=1
offset=9131
sample=OM28_staccatissimo_MF_G#2_RR3.opus
</region>

<region>
end=18962
hivel=127
key=G#3
lovel=1
offset=864
sample=OM28_staccatissimo_MF_G#3_RR3.opus
</region>

<region>
end=27910
hivel=127
key=G#4
lovel=1
offset=8966
sample=OM28_staccatissimo_MF_G#4_RR3.opus
</region>

<region>
end=27316
hivel=127
key=G2
lovel=1
offset=8933
sample=OM28_staccatissimo_MF_G2_RR3.opus
</region>

<region>
end=29101
hivel=127
key=G3
lovel=1
offset=8062
sample=OM28_staccatissimo_MF_G3_RR3.opus
</region>

<region>
end=27910
hivel=127
key=G4
lovel=1
offset=10096
sample=OM28_staccatissimo_MF_G4_RR3.opus
</region>

<region>
end=24000
hikey=C6
hivel=127
lokey=G5
lovel=1
offset=9462
pitch_keycenter=G5
sample=OM28_staccatissimo_MF_G5_RR3.opus
</region>
</group>

<group>
group_label=RR4
seq_length=8
seq_position=4

<region>
end=28473
hivel=127
key=A#2
lovel=1
offset=9075
sample=OM28_staccatissimo_MF_A#2_RR4.opus
</region>

<region>
end=19242
hivel=127
key=A#3
lovel=1
offset=2050
sample=OM28_staccatissimo_MF_A#3_RR4.opus
</region>

<region>
end=27605
hivel=127
key=A#4
lovel=1
offset=8280
sample=OM28_staccatissimo_MF_A#4_RR4.opus
</region>

<region>
end=28473
hivel=127
key=A2
lovel=1
offset=7736
sample=OM28_staccatissimo_MF_A2_RR4.opus
</region>

<region>
end=19574
hivel=127
key=A3
lovel=1
offset=2330
sample=OM28_staccatissimo_MF_A3_RR4.opus
</region>

<region>
end=27605
hivel=127
key=A4
lovel=1
offset=7980
sample=OM28_staccatissimo_MF_A4_RR4.opus
</region>

<region>
end=28473
hivel=127
key=B2
lovel=1
offset=8592
sample=OM28_staccatissimo_MF_B2_RR4.opus
</region>

<region>
end=28181
hivel=127
key=B3
lovel=1
offset=9085
sample=OM28_staccatissimo_MF_B3_RR4.opus
</region>

<region>
end=22832
hivel=127
key=B4
lovel=1
offset=2279
sample=OM28_staccatissimo_MF_B4_RR4.opus
</region>

<region>
end=24000
hivel=127
key=C#3
lovel=1
offset=9075
sample=OM28_staccatissimo_MF_C#3_RR4.opus
</region>

<region>
end=28181
hivel=127
key=C#4
lovel=1
offset=8467
sample=OM28_staccatissimo_MF_C#4_RR4.opus
</region>

<region>
end=24000
hivel=127
key=C#5
lovel=1
offset=2473
sample=OM28_staccatissimo_MF_C#5_RR4.opus
</region>

<region>
end=24000
hivel=127
key=C3
lovel=1
offset=8732
sample=OM28_staccatissimo_MF_C3_RR4.opus
</region>

<region>
end=28181
hikey=C4
hivel=127
lokey=C4
lovel=1
offset=8873
sample=OM28_staccatissimo_MF_C4_RR4.opus
</region>

<region>
end=24000
hivel=127
key=C5
lovel=1
offset=7760
sample=OM28_staccatissimo_MF_C5_RR4.opus
</region>

<region>
end=28473
hivel=127
key=D#3
lovel=1
offset=8149
sample=OM28_staccatissimo_MF_D#3_RR4.opus
</region>

<region>
end=27605
hivel=127
key=D#4
lovel=1
offset=9776
sample=OM28_staccatissimo_MF_D#4_RR4.opus
</region>

<region>
end=27605
hivel=127
key=D#5
lovel=1
offset=8852
sample=OM28_staccatissimo_MF_D#5_RR4.opus
</region>

<region>
end=24000
hivel=127
key=D3
lovel=1
offset=9863
sample=OM28_staccatissimo_MF_D3_RR4.opus
</region>

<region>
end=27605
hivel=127
key=D4
lovel=1
offset=8778
sample=OM28_staccatissimo_MF_D4_RR4.opus
</region>

<region>
end=27605
hivel=127
key=D5
lovel=1
offset=8783
sample=OM28_staccatissimo_MF_D5_RR4.opus
</region>

<region>
end=24000
hikey=E2
hivel=127
lokey=C2
lovel=1
offset=7837
pitch_keycenter=E2
sample=OM28_staccatissimo_MF_E2_RR4.opus
</region>

<region>
end=27483
hivel=127
key=E3
lovel=1
offset=8624
sample=OM28_staccatissimo_MF_E3_RR4.opus
</region>

<region>
end=27605
hivel=127
key=E4
lovel=1
offset=7830
sample=OM28_staccatissimo_MF_E4_RR4.opus
</region>

<region>
end=27605
hivel=127
key=E5
lovel=1
offset=8777
sample=OM28_staccatissimo_MF_E5_RR4.opus
</region>

<region>
end=28473
hivel=127
key=F#2
lovel=1
offset=9604
sample=OM28_staccatissimo_MF_F#2_RR4.opus
</region>

<region>
end=27483
hivel=127
key=F#3
lovel=1
offset=8728
sample=OM28_staccatissimo_MF_F#3_RR4.opus
</region>

<region>
end=27605
hivel=127
key=F#4
lovel=1
offset=8545
sample=OM28_staccatissimo_MF_F#4_RR4.opus
</region>

<region>
end=24000
hivel=127
key=F#5
lovel=1
offset=985
sample=OM28_staccatissimo_MF_F#5_RR4.opus
</region>

<region>
end=28473
hivel=127
key=F2
lovel=1
offset=9198
sample=OM28_staccatissimo_MF_F2_RR4.opus
</region>

<region>
end=27483
hivel=127
key=F3
lovel=1
offset=9706
sample=OM28_staccatissimo_MF_F3_RR4.opus
</region>

<region>
end=27605
hivel=127
key=F4
lovel=1
offset=8019
sample=OM28_staccatissimo_MF_F4_RR4.opus
</region>

<region>
end=27605
hivel=127
key=F5
lovel=1
offset=9223
sample=OM28_staccatissimo_MF_F5_RR4.opus
</region>

<region>
end=28473
hivel=127
key=G#2
lovel=1
offset=8402
sample=OM28_staccatissimo_MF_G#2_RR4.opus
</region>

<region>
end=18950
hivel=127
key=G#3
lovel=1
offset=1358
sample=OM28_staccatissimo_MF_G#3_RR4.opus
</region>

<region>
end=27605
hivel=127
key=G#4
lovel=1
offset=9254
sample=OM28_staccatissimo_MF_G#4_RR4.opus
</region>

<region>
end=28473
hivel=127
key=G2
lovel=1
offset=8512
sample=OM28_staccatissimo_MF_G2_RR4.opus
</region>

<region>
end=27483
hivel=127
key=G3
lovel=1
offset=8223
sample=OM28_staccatissimo_MF_G3_RR4.opus
</region>

<region>
end=27605
hivel=127
key=G4
lovel=1
offset=8995
sample=OM28_staccatissimo_MF_G4_RR4.opus
</region>

<region>
end=28962
hikey=C6
hivel=127
lokey=G5
lovel=1
offset=8835
pitch_keycenter=G5
sample=OM28_staccatissimo_MF_G5_RR4.opus
</region>
</group>

<group>
group_label=RR5
seq_length=8
seq_position=5

<region>
end=29442
hivel=127
key=A#2
lovel=1
offset=9782
sample=OM28_staccatissimo_MF_A#2_RR5.opus
</region>

<region>
end=29648
hivel=127
key=A#3
lovel=1
offset=7938
sample=OM28_staccatissimo_MF_A#3_RR5.opus
</region>

<region>
end=28831
hivel=127
key=A#4
lovel=1
offset=7860
sample=OM28_staccatissimo_MF_A#4_RR5.opus
</region>

<region>
end=29442
hivel=127
key=A2
lovel=1
offset=9123
sample=OM28_staccatissimo_MF_A2_RR5.opus
</region>

<region>
end=29970
hivel=127
key=A3
lovel=1
offset=9150
sample=OM28_staccatissimo_MF_A3_RR5.opus
</region>

<region>
end=28949
hivel=127
key=A4
lovel=1
offset=9756
sample=OM28_staccatissimo_MF_A4_RR5.opus
</region>

<region>
end=29137
hivel=127
key=B2
lovel=1
offset=7557
sample=OM28_staccatissimo_MF_B2_RR5.opus
</region>

<region>
end=29116
hivel=127
key=B3
lovel=1
offset=9579
sample=OM28_staccatissimo_MF_B3_RR5.opus
</region>

<region>
end=28949
hivel=127
key=B4
lovel=1
offset=8386
sample=OM28_staccatissimo_MF_B4_RR5.opus
</region>

<region>
end=29442
hivel=127
key=C#3
lovel=1
offset=8425
sample=OM28_staccatissimo_MF_C#3_RR5.opus
</region>

<region>
end=27976
hivel=127
key=C#4
lovel=1
offset=9607
sample=OM28_staccatissimo_MF_C#4_RR5.opus
</region>

<region>
end=28949
hivel=127
key=C#5
lovel=1
offset=8788
sample=OM28_staccatissimo_MF_C#5_RR5.opus
</region>

<region>
end=29442
hivel=127
key=C3
lovel=1
offset=8187
sample=OM28_staccatissimo_MF_C3_RR5.opus
</region>

<region>
end=27692
hikey=C4
hivel=127
lokey=C4
lovel=1
offset=9167
sample=OM28_staccatissimo_MF_C4_RR5.opus
</region>

<region>
end=28949
hivel=127
key=C5
lovel=1
offset=9603
sample=OM28_staccatissimo_MF_C5_RR5.opus
</region>

<region>
end=30456
hivel=127
key=D#3
lovel=1
offset=8438
sample=OM28_staccatissimo_MF_D#3_RR5.opus
</region>

<region>
end=28352
hivel=127
key=D#4
lovel=1
offset=8967
sample=OM28_staccatissimo_MF_D#4_RR5.opus
</region>

<region>
end=28949
hivel=127
key=D#5
lovel=1
offset=9085
sample=OM28_staccatissimo_MF_D#5_RR5.opus
</region>

<region>
end=27768
hivel=127
key=D3
lovel=1
offset=10337
sample=OM28_staccatissimo_MF_D3_RR5.opus
</region>

<region>
end=28292
hivel=127
key=D4
lovel=1
offset=7828
sample=OM28_staccatissimo_MF_D4_RR5.opus
</region>

<region>
end=28949
hivel=127
key=D5
lovel=1
offset=8627
sample=OM28_staccatissimo_MF_D5_RR5.opus
</region>

<region>
end=24000
hikey=E2
hivel=127
lokey=C2
lovel=1
offset=1294
pitch_keycenter=E2
sample=OM28_staccatissimo_MF_E2_RR5.opus
</region>

<region>
end=29245
hivel=127
key=E3
lovel=1
offset=8149
sample=OM28_staccatissimo_MF_E3_RR5.opus
</region>

<region>
end=28352
hivel=127
key=E4
lovel=1
offset=7979
sample=OM28_staccatissimo_MF_E4_RR5.opus
</region>

<region>
end=28949
hivel=127
key=E5
lovel=1
offset=7728
sample=OM28_staccatissimo_MF_E5_RR5.opus
</region>

<region>
end=31817
hivel=127
key=F#2
lovel=1
offset=8508
sample=OM28_staccatissimo_MF_F#2_RR5.opus
</region>

<region>
end=22298
hivel=127
key=F#3
lovel=1
offset=1004
sample=OM28_staccatissimo_MF_F#3_RR5.opus
</region>

<region>
end=28352
hivel=127
key=F#4
lovel=1
offset=8372
sample=OM28_staccatissimo_MF_F#4_RR5.opus
</region>

<region>
end=28949
hivel=127
key=F#5
lovel=1
offset=8700
sample=OM28_staccatissimo_MF_F#5_RR5.opus
</region>

<region>
end=29912
hivel=127
key=F2
lovel=1
offset=9191
sample=OM28_staccatissimo_MF_F2_RR5.opus
</region>

<region>
end=28357
hivel=127
key=F3
lovel=1
offset=9292
sample=OM28_staccatissimo_MF_F3_RR5.opus
</region>

<region>
end=28352
hivel=127
key=F4
lovel=1
offset=8657
sample=OM28_staccatissimo_MF_F4_RR5.opus
</region>

<region>
end=28949
hivel=127
key=F5
lovel=1
offset=10146
sample=OM28_staccatissimo_MF_F5_RR5.opus
</region>

<region>
end=29442
hivel=127
key=G#2
lovel=1
offset=9545
sample=OM28_staccatissimo_MF_G#2_RR5.opus
</region>

<region>
end=22543
hivel=127
key=G#3
lovel=1
offset=980
sample=OM28_staccatissimo_MF_G#3_RR5.opus
</region>

<region>
end=28949
hivel=127
key=G#4
lovel=1
offset=8463
sample=OM28_staccatissimo_MF_G#4_RR5.opus
</region>

<region>
end=29442
hivel=127
key=G2
lovel=1
offset=8586
sample=OM28_staccatissimo_MF_G2_RR5.opus
</region>

<region>
end=21632
hivel=127
key=G3
lovel=1
offset=1016
sample=OM28_staccatissimo_MF_G3_RR5.opus
</region>

<region>
end=28352
hivel=127
key=G4
lovel=1
offset=10194
sample=OM28_staccatissimo_MF_G4_RR5.opus
</region>

<region>
end=28551
hikey=C6
hivel=127
lokey=G5
lovel=1
offset=8455
pitch_keycenter=G5
sample=OM28_staccatissimo_MF_G5_RR5.opus
</region>
</group>

<group>
group_label=RR6
seq_length=8
seq_position=6

<region>
end=22370
hivel=127
key=A#3
lovel=1
offset=1730
sample=OM28_staccatissimo_MF_A#3_RR6.opus
</region>

<region>
end=28383
hivel=127
key=A#4
lovel=1
offset=8991
sample=OM28_staccatissimo_MF_A#4_RR6.opus
</region>

<region>
end=28534
hivel=127
key=A2
lovel=1
offset=8529
sample=OM28_staccatissimo_MF_A2_RR6.opus
</region>

<region>
end=28383
hivel=127
key=A3
lovel=1
offset=8990
sample=OM28_staccatissimo_MF_A3_RR6.opus
</region>

<region>
end=28383
hivel=127
key=A4
lovel=1
offset=8515
sample=OM28_staccatissimo_MF_A4_RR6.opus
</region>

<region>
end=21487
hivel=127
key=B2
lovel=1
offset=1013
sample=OM28_staccatissimo_MF_B2_RR6.opus
</region>

<region>
end=24000
hivel=127
key=B3
lovel=1
offset=1817
sample=OM28_staccatissimo_MF_B3_RR6.opus
</region>

<region>
end=24000
hivel=127
key=B4
lovel=1
offset=3293
sample=OM28_staccatissimo_MF_B4_RR6.opus
</region>

<region>
end=28204
hivel=127
key=C#3
lovel=1
offset=8932
sample=OM28_staccatissimo_MF_C#3_RR6.opus
</region>

<region>
end=28383
hivel=127
key=C#4
lovel=1
offset=10510
sample=OM28_staccatissimo_MF_C#4_RR6.opus
</region>

<region>
end=28383
hivel=127
key=C#5
lovel=1
offset=8959
sample=OM28_staccatissimo_MF_C#5_RR6.opus
</region>

<region>
end=28204
hivel=127
key=C3
lovel=1
offset=9186
sample=OM28_staccatissimo_MF_C3_RR6.opus
</region>

<region>
end=24000
hikey=C4
hivel=127
lokey=C4
lovel=1
offset=1034
sample=OM28_staccatissimo_MF_C4_RR6.opus
</region>

<region>
end=28383
hivel=127
key=C5
lovel=1
offset=8530
sample=OM28_staccatissimo_MF_C5_RR6.opus
</region>

<region>
end=28204
hivel=127
key=D#3
lovel=1
offset=8413
sample=OM28_staccatissimo_MF_D#3_RR6.opus
</region>

<region>
end=28383
hivel=127
key=D#4
lovel=1
offset=9098
sample=OM28_staccatissimo_MF_D#4_RR6.opus
</region>

<region>
end=28383
hivel=127
key=D#5
lovel=1
offset=7970
sample=OM28_staccatissimo_MF_D#5_RR6.opus
</region>

<region>
end=28204
hivel=127
key=D3
lovel=1
offset=8626
sample=OM28_staccatissimo_MF_D3_RR6.opus
</region>

<region>
end=28383
hivel=127
key=D4
lovel=1
offset=9658
sample=OM28_staccatissimo_MF_D4_RR6.opus
</region>

<region>
end=28383
hivel=127
key=D5
lovel=1
offset=8504
sample=OM28_staccatissimo_MF_D5_RR6.opus
</region>

<region>
end=24000
hikey=E2
hivel=127
lokey=C2
lovel=1
offset=7930
pitch_keycenter=E2
sample=OM28_staccatissimo_MF_E2_RR6.opus
</region>

<region>
end=28204
hivel=127
key=E3
lovel=1
offset=6830
sample=OM28_staccatissimo_MF_E3_RR6.opus
</region>

<region>
end=28383
hivel=127
key=E4
lovel=1
offset=8129
sample=OM28_staccatissimo_MF_E4_RR6.opus
</region>

<region>
end=28383
hivel=127
key=E5
lovel=1
offset=8369
sample=OM28_staccatissimo_MF_E5_RR6.opus
</region>

<region>
hivel=127
key=F#2
lovel=1
offset=9758
sample=OM28_staccatissimo_MF_F#2_RR6.opus
</region>

<region>
end=24000
hivel=127
key=F#3
lovel=1
offset=2412
sample=OM28_staccatissimo_MF_F#3_RR6.opus
</region>

<region>
end=24000
hivel=127
key=F#4
lovel=1
offset=6330
sample=OM28_staccatissimo_MF_F#4_RR6.opus
</region>

<region>
end=24000
hivel=127
key=F#5
lovel=1
offset=1848
sample=OM28_staccatissimo_MF_F#5_RR6.opus
</region>

<region>
end=31616
hivel=127
key=F2
lovel=1
offset=8826
sample=OM28_staccatissimo_MF_F2_RR6.opus
</region>

<region>
end=28204
hivel=127
key=F3
lovel=1
offset=8230
sample=OM28_staccatissimo_MF_F3_RR6.opus
</region>

<region>
end=28383
hivel=127
key=F4
lovel=1
offset=9282
sample=OM28_staccatissimo_MF_F4_RR6.opus
</region>

<region>
end=28383
hivel=127
key=F5
lovel=1
offset=9401
sample=OM28_staccatissimo_MF_F5_RR6.opus
</region>

<region>
end=28394
hivel=127
key=G#2
lovel=1
offset=8486
sample=OM28_staccatissimo_MF_G#2_RR6.opus
</region>

<region>
end=28383
hivel=127
key=G#3
lovel=1
offset=8097
sample=OM28_staccatissimo_MF_G#3_RR6.opus
</region>

<region>
end=28383
hivel=127
key=G#4
lovel=1
offset=8304
sample=OM28_staccatissimo_MF_G#4_RR6.opus
</region>

<region>
end=28657
hivel=127
key=G2
lovel=1
offset=8364
sample=OM28_staccatissimo_MF_G2_RR6.opus
</region>

<region>
end=20285
hivel=127
key=G3
lovel=1
offset=1223
sample=OM28_staccatissimo_MF_G3_RR6.opus
</region>

<region>
end=28383
hivel=127
key=G4
lovel=1
offset=8450
sample=OM28_staccatissimo_MF_G4_RR6.opus
</region>

<region>
end=28523
hikey=C6
hivel=127
lokey=G5
lovel=1
offset=8158
pitch_keycenter=G5
sample=OM28_staccatissimo_MF_G5_RR6.opus
</region>

<region>
end=28534
hivel=127
key=A#2
lovel=1
offset=8883
sample=OM28_staccatissimo_MF_A#2_RR6.opus
</region>
</group>

<group>
group_label=RR7
seq_length=8
seq_position=7

<region>
end=30454
hivel=127
key=A#2
lovel=1
offset=8558
sample=OM28_staccatissimo_MF_A#2_RR7.opus
</region>

<region>
end=24000
hivel=127
key=A#3
lovel=1
offset=8539
sample=OM28_staccatissimo_MF_A#3_RR7.opus
</region>

<region>
end=30288
hivel=127
key=A#4
lovel=1
offset=8768
sample=OM28_staccatissimo_MF_A#4_RR7.opus
</region>

<region>
end=30454
hivel=127
key=A2
lovel=1
offset=8495
sample=OM28_staccatissimo_MF_A2_RR7.opus
</region>

<region>
end=24000
hivel=127
key=A3
lovel=1
offset=9196
sample=OM28_staccatissimo_MF_A3_RR7.opus
</region>

<region>
end=31327
hivel=127
key=A4
lovel=1
offset=9050
sample=OM28_staccatissimo_MF_A4_RR7.opus
</region>

<region>
end=30454
hivel=127
key=B2
lovel=1
offset=8291
sample=OM28_staccatissimo_MF_B2_RR7.opus
</region>

<region>
end=29795
hivel=127
key=B3
lovel=1
offset=8218
sample=OM28_staccatissimo_MF_B3_RR7.opus
</region>

<region>
end=30288
hivel=127
key=B4
lovel=1
offset=9086
sample=OM28_staccatissimo_MF_B4_RR7.opus
</region>

<region>
end=30454
hivel=127
key=C#3
lovel=1
offset=9851
sample=OM28_staccatissimo_MF_C#3_RR7.opus
</region>

<region>
end=28899
hivel=127
key=C#4
lovel=1
offset=8220
sample=OM28_staccatissimo_MF_C#4_RR7.opus
</region>

<region>
end=30288
hivel=127
key=C#5
lovel=1
offset=8123
sample=OM28_staccatissimo_MF_C#5_RR7.opus
</region>

<region>
end=30454
hivel=127
key=C3
lovel=1
offset=8659
sample=OM28_staccatissimo_MF_C3_RR7.opus
</region>

<region>
end=29569
hikey=C4
hivel=127
lokey=C4
lovel=1
offset=8542
sample=OM28_staccatissimo_MF_C4_RR7.opus
</region>

<region>
end=30288
hivel=127
key=C5
lovel=1
offset=8733
sample=OM28_staccatissimo_MF_C5_RR7.opus
</region>

<region>
end=32031
hivel=127
key=D#3
lovel=1
offset=9008
sample=OM28_staccatissimo_MF_D#3_RR7.opus
</region>

<region>
end=28399
hivel=127
key=D#4
lovel=1
offset=7693
sample=OM28_staccatissimo_MF_D#4_RR7.opus
</region>

<region>
end=30288
hivel=127
key=D#5
lovel=1
offset=8054
sample=OM28_staccatissimo_MF_D#5_RR7.opus
</region>

<region>
end=24777
hivel=127
key=D3
lovel=1
offset=2470
sample=OM28_staccatissimo_MF_D3_RR7.opus
</region>

<region>
end=28899
hivel=127
key=D4
lovel=1
offset=6379
sample=OM28_staccatissimo_MF_D4_RR7.opus
</region>

<region>
end=30288
hivel=127
key=D5
lovel=1
offset=9984
sample=OM28_staccatissimo_MF_D5_RR7.opus
</region>

<region>
end=22265
hikey=E2
hivel=127
lokey=C2
lovel=1
offset=1719
pitch_keycenter=E2
sample=OM28_staccatissimo_MF_E2_RR7.opus
</region>

<region>
end=30600
hivel=127
key=E3
lovel=1
offset=7747
sample=OM28_staccatissimo_MF_E3_RR7.opus
</region>

<region>
end=29083
hivel=127
key=E4
lovel=1
offset=8383
sample=OM28_staccatissimo_MF_E4_RR7.opus
</region>

<region>
end=30288
hivel=127
key=E5
lovel=1
offset=9207
sample=OM28_staccatissimo_MF_E5_RR7.opus
</region>

<region>
end=32604
hivel=127
key=F#2
lovel=1
offset=10184
sample=OM28_staccatissimo_MF_F#2_RR7.opus
</region>

<region>
end=24000
hivel=127
key=F#3
lovel=1
offset=1971
sample=OM28_staccatissimo_MF_F#3_RR7.opus
</region>

<region>
end=29083
hivel=127
key=F#4
lovel=1
offset=7396
sample=OM28_staccatissimo_MF_F#4_RR7.opus
</region>

<region>
end=30166
hivel=127
key=F#5
lovel=1
offset=7809
sample=OM28_staccatissimo_MF_F#5_RR7.opus
</region>

<region>
end=31471
hivel=127
key=F2
lovel=1
offset=10698
sample=OM28_staccatissimo_MF_F2_RR7.opus
</region>

<region>
end=21260
hivel=127
key=F3
lovel=1
offset=1005
sample=OM28_staccatissimo_MF_F3_RR7.opus
</region>

<region>
end=29083
hivel=127
key=F4
lovel=1
offset=9295
sample=OM28_staccatissimo_MF_F4_RR7.opus
</region>

<region>
end=22884
hivel=127
key=F5
lovel=1
offset=921
sample=OM28_staccatissimo_MF_F5_RR7.opus
</region>

<region>
end=30691
hivel=127
key=G#2
lovel=1
offset=8417
sample=OM28_staccatissimo_MF_G#2_RR7.opus
</region>

<region>
end=24000
hivel=127
key=G#3
lovel=1
offset=7807
sample=OM28_staccatissimo_MF_G#3_RR7.opus
</region>

<region>
end=29083
hivel=127
key=G#4
lovel=1
offset=8637
sample=OM28_staccatissimo_MF_G#4_RR7.opus
</region>

<region>
end=31352
hivel=127
key=G2
lovel=1
offset=7971
sample=OM28_staccatissimo_MF_G2_RR7.opus
</region>

<region>
end=24000
hivel=127
key=G3
lovel=1
offset=995
sample=OM28_staccatissimo_MF_G3_RR7.opus
</region>

<region>
end=29083
hivel=127
key=G4
lovel=1
offset=7471
sample=OM28_staccatissimo_MF_G4_RR7.opus
</region>

<region>
end=29343
hikey=C6
hivel=127
lokey=G5
lovel=1
offset=7799
pitch_keycenter=G5
sample=OM28_staccatissimo_MF_G5_RR7.opus
</region>
</group>

<group>
group_label=RR8
seq_length=8
seq_position=8

<region>
end=30582
hivel=127
key=A#2
lovel=1
offset=8097
sample=OM28_staccatissimo_MF_A#2_RR8.opus
</region>

<region>
end=30582
hivel=127
key=A#3
lovel=1
offset=8698
sample=OM28_staccatissimo_MF_A#3_RR8.opus
</region>

<region>
end=30582
hivel=127
key=A#4
lovel=1
offset=8839
sample=OM28_staccatissimo_MF_A#4_RR8.opus
</region>

<region>
end=30582
hivel=127
key=A2
lovel=1
offset=7627
sample=OM28_staccatissimo_MF_A2_RR8.opus
</region>

<region>
end=24000
hivel=127
key=A3
lovel=1
offset=9464
sample=OM28_staccatissimo_MF_A3_RR8.opus
</region>

<region>
end=30582
hivel=127
key=A4
lovel=1
offset=9333
sample=OM28_staccatissimo_MF_A4_RR8.opus
</region>

<region>
end=30582
hivel=127
key=B2
lovel=1
offset=8476
sample=OM28_staccatissimo_MF_B2_RR8.opus
</region>

<region>
end=30582
hivel=127
key=B3
lovel=1
offset=7348
sample=OM28_staccatissimo_MF_B3_RR8.opus
</region>

<region>
end=30582
hivel=127
key=B4
lovel=1
offset=8425
sample=OM28_staccatissimo_MF_B4_RR8.opus
</region>

<region>
end=30582
hivel=127
key=C#3
lovel=1
offset=9198
sample=OM28_staccatissimo_MF_C#3_RR8.opus
</region>

<region>
end=30582
hivel=127
key=C#4
lovel=1
offset=7030
sample=OM28_staccatissimo_MF_C#4_RR8.opus
</region>

<region>
end=24000
hivel=127
key=C#5
lovel=1
offset=8266
sample=OM28_staccatissimo_MF_C#5_RR8.opus
</region>

<region>
end=30582
hivel=127
key=C3
lovel=1
offset=8509
sample=OM28_staccatissimo_MF_C3_RR8.opus
</region>

<region>
end=30582
hikey=C4
hivel=127
lokey=C4
lovel=1
offset=10345
sample=OM28_staccatissimo_MF_C4_RR8.opus
</region>

<region>
end=30582
hivel=127
key=C5
lovel=1
offset=8954
sample=OM28_staccatissimo_MF_C5_RR8.opus
</region>

<region>
end=30582
hivel=127
key=D#3
lovel=1
offset=10384
sample=OM28_staccatissimo_MF_D#3_RR8.opus
</region>

<region>
end=30582
hivel=127
key=D#4
lovel=1
offset=10923
sample=OM28_staccatissimo_MF_D#4_RR8.opus
</region>

<region>
end=24000
hivel=127
key=D#5
lovel=1
offset=8145
sample=OM28_staccatissimo_MF_D#5_RR8.opus
</region>

<region>
end=30582
hivel=127
key=D3
lovel=1
offset=8968
sample=OM28_staccatissimo_MF_D3_RR8.opus
</region>

<region>
end=30582
hivel=127
key=D4
lovel=1
offset=7695
sample=OM28_staccatissimo_MF_D4_RR8.opus
</region>

<region>
end=24000
hivel=127
key=D5
lovel=1
offset=8646
sample=OM28_staccatissimo_MF_D5_RR8.opus
</region>

<region>
end=30582
hikey=E2
hivel=127
lokey=C2
lovel=1
offset=7562
pitch_keycenter=E2
sample=OM28_staccatissimo_MF_E2_RR8.opus
</region>

<region>
end=30582
hivel=127
key=E3
lovel=1
offset=8656
sample=OM28_staccatissimo_MF_E3_RR8.opus
</region>

<region>
end=30582
hivel=127
key=E4
lovel=1
offset=7603
sample=OM28_staccatissimo_MF_E4_RR8.opus
</region>

<region>
end=24000
hivel=127
key=E5
lovel=1
offset=9969
sample=OM28_staccatissimo_MF_E5_RR8.opus
</region>

<region>
end=30582
hivel=127
key=F#2
lovel=1
offset=9208
sample=OM28_staccatissimo_MF_F#2_RR8.opus
</region>

<region>
end=24000
hivel=127
key=F#3
lovel=1
offset=3104
sample=OM28_staccatissimo_MF_F#3_RR8.opus
</region>

<region>
end=24000
hivel=127
key=F#4
lovel=1
offset=766
sample=OM28_staccatissimo_MF_F#4_RR8.opus
</region>

<region>
end=24000
hivel=127
key=F#5
lovel=1
offset=3769
sample=OM28_staccatissimo_MF_F#5_RR8.opus
</region>

<region>
end=30582
hivel=127
key=F2
lovel=1
offset=9371
sample=OM28_staccatissimo_MF_F2_RR8.opus
</region>

<region>
end=30582
hivel=127
key=F3
lovel=1
offset=7051
sample=OM28_staccatissimo_MF_F3_RR8.opus
</region>

<region>
end=30582
hivel=127
key=F4
lovel=1
offset=9013
sample=OM28_staccatissimo_MF_F4_RR8.opus
</region>

<region>
end=24000
hivel=127
key=F5
lovel=1
offset=8352
sample=OM28_staccatissimo_MF_F5_RR8.opus
</region>

<region>
end=30582
hivel=127
key=G#2
lovel=1
offset=8095
sample=OM28_staccatissimo_MF_G#2_RR8.opus
</region>

<region>
end=24000
hivel=127
key=G#3
lovel=1
offset=1357
sample=OM28_staccatissimo_MF_G#3_RR8.opus
</region>

<region>
end=30582
hivel=127
key=G#4
lovel=1
offset=7580
sample=OM28_staccatissimo_MF_G#4_RR8.opus
</region>

<region>
end=30582
hivel=127
key=G2
lovel=1
offset=8563
sample=OM28_staccatissimo_MF_G2_RR8.opus
</region>

<region>
end=24000
hivel=127
key=G3
lovel=1
offset=1179
sample=OM28_staccatissimo_MF_G3_RR8.opus
</region>

<region>
end=30582
hivel=127
key=G4
lovel=1
offset=8017
sample=OM28_staccatissimo_MF_G4_RR8.opus
</region>

<region>
end=24000
hikey=C6
hivel=127
lokey=G5
lovel=1
offset=8169
pitch_keycenter=G5
sample=OM28_staccatissimo_MF_G5_RR8.opus
</region>
</group>